<!DOCTYPE svg PUBLIC "-//W3C//DTD SVG 1.1//EN" "http://www.w3.org/Graphics/SVG/1.1/DTD/svg11.dtd">
<!-- Uploaded to: SVG Repo, www.svgrepo.com, Transformed by: SVG Repo Mixer Tools -->
<svg width="800px" height="800px" viewBox="-102.4 -102.4 1228.80 1228.80" class="icon" version="1.1" xmlns="http://www.w3.org/2000/svg" fill="#000000">
<g id="SVGRepo_bgCarrier" stroke-width="0" transform="translate(0,0), scale(1)">
<rect x="-102.4" y="-102.4" width="1228.80" height="1228.80" rx="614.4" fill="#7ed0ec" strokewidth="0"/>
</g>
<g id="SVGRepo_tracerCarrier" stroke-linecap="round" stroke-linejoin="round"/>
<g id="SVGRepo_iconCarrier">
<path d="M512 512m-480 0a480 480 0 1 0 960 0 480 480 0 1 0-960 0Z" fill="#ffffff"/>
<path d="M691.2 441.6L512 179.2c-6.4-6.4-19.2-6.4-25.6 0l-179.2 256c-102.4 147.2-6.4 364.8 172.8 371.2h38.4c179.2-6.4 275.2-217.6 172.8-364.8z" fill="#000000"/>
<path d="M608 524.8l-128 160c-6.4 6.4-12.8 0-12.8-6.4l12.8-83.2c0-6.4 0-6.4-6.4-6.4H377.6c-6.4-6.4-6.4-12.8 0-12.8L512 409.6c6.4-6.4 12.8 0 12.8 6.4l-25.6 89.6c0 6.4 6.4 6.4 12.8 6.4h96c6.4 0 6.4 6.4 0 12.8z" fill="#FFFFFF"/>
</g>
</svg>